<?xml version="1.0" standalone="no"?><!-- Generator: Gravit.io --><svg xmlns="http://www.w3.org/2000/svg" xmlns:xlink="http://www.w3.org/1999/xlink" style="isolation:isolate" viewBox="490 419 322 180" width="322" height="180"><defs><clipPath id="_clipPath_NukKfsQAStDZwoFWzZupXzdwJMazRqqO"><rect x="490" y="419" width="322" height="180"/></clipPath></defs><g clip-path="url(#_clipPath_NukKfsQAStDZwoFWzZupXzdwJMazRqqO)"><rect x="490" y="419" width="322" height="180" style="fill:rgb(42,39,39)" fill-opacity="0"/><defs><filter id="TukVjL0Ina9hfok7raTvRO25C3hDDcnn" x="-200%" y="-200%" width="400%" height="400%" filterUnits="objectBoundingBox" color-interpolation-filters="sRGB"><feOffset xmlns="http://www.w3.org/2000/svg" in="SourceGraphic" dx="0" dy="2"/><feGaussianBlur xmlns="http://www.w3.org/2000/svg" stdDeviation="2.146804531419514" result="pf_100_offsetBlur"/><feComposite xmlns="http://www.w3.org/2000/svg" in="SourceGraphic" in2="pf_100_offsetBlur" result="pf_100_inverse" operator="out"/><feFlood xmlns="http://www.w3.org/2000/svg" flood-color="#000000" flood-opacity="0.5" result="pf_100_color"/><feComposite xmlns="http://www.w3.org/2000/svg" in="pf_100_color" in2="pf_100_inverse" operator="in" result="pf_100_shadow"/><feComposite xmlns="http://www.w3.org/2000/svg" in="pf_100_shadow" in2="SourceGraphic" operator="over"/></filter></defs><g filter="url(#TukVjL0Ina9hfok7raTvRO25C3hDDcnn)"><path d=" M 511 528.5 L 511 528.5 C 511 567.41 578.437 599 661.5 599 C 744.563 599 812 567.41 812 528.5 L 812 528.5 L 511 528.5 Z " fill-rule="evenodd" fill="rgb(14,28,98)"/></g><g style="isolation:isolate"><defs><filter id="RLpUlKkhrgm9W34W389CA7P3TkYqPOFj" x="-200%" y="-200%" width="400%" height="400%" filterUnits="objectBoundingBox" color-interpolation-filters="sRGB"><feOffset xmlns="http://www.w3.org/2000/svg" in="SourceGraphic" dx="3" dy="3"/><feGaussianBlur xmlns="http://www.w3.org/2000/svg" stdDeviation="2.146804531419514" result="pf_100_offsetBlur"/><feComposite xmlns="http://www.w3.org/2000/svg" in="SourceGraphic" in2="pf_100_offsetBlur" result="pf_100_inverse" operator="out"/><feFlood xmlns="http://www.w3.org/2000/svg" flood-color="#000000" flood-opacity="0.5" result="pf_100_color"/><feComposite xmlns="http://www.w3.org/2000/svg" in="pf_100_color" in2="pf_100_inverse" operator="in" result="pf_100_shadow"/><feComposite xmlns="http://www.w3.org/2000/svg" in="pf_100_shadow" in2="SourceGraphic" operator="over"/></filter></defs><g filter="url(#RLpUlKkhrgm9W34W389CA7P3TkYqPOFj)"><path d=" M 587.896 526.454 L 587.896 526.454 L 587.896 526.454 Q 588.421 521.059 588.946 515.783 L 588.946 515.783 L 588.946 515.783 Q 589.471 510.506 589.875 504.954 L 589.875 504.954 L 589.875 504.954 Q 589.955 503.655 590.137 503.163 L 590.137 503.163 L 590.137 503.163 Q 590.319 502.67 591.046 502.513 L 591.046 502.513 L 591.046 502.513 Q 594.478 501.843 598.234 501.115 L 598.234 501.115 L 598.234 501.115 Q 601.989 500.386 605.503 499.244 L 605.503 499.244 L 605.503 499.244 Q 605.624 499.205 605.866 499.205 L 605.866 499.205 L 605.866 499.205 Q 606.31 499.205 606.31 499.52 L 606.31 499.52 L 602.676 537.874 L 602.676 537.874 Q 602.555 539.173 602.393 539.665 L 602.393 539.665 L 602.393 539.665 Q 602.232 540.157 601.505 540.315 L 601.505 540.315 L 601.505 540.315 Q 598.072 541.339 594.559 542.599 L 594.559 542.599 L 594.559 542.599 Q 591.046 543.859 587.129 545.158 L 587.129 545.158 L 587.129 545.158 Q 587.007 545.198 586.765 545.198 L 586.765 545.198 L 586.765 545.198 Q 586.321 545.198 586.321 544.804 L 586.321 544.804 L 586.321 544.804 Q 586.321 544.765 586.402 543.741 L 586.402 543.741 L 586.402 543.741 Q 586.482 542.717 586.624 541.102 L 586.624 541.102 L 586.624 541.102 Q 586.765 539.488 586.927 537.48 L 586.927 537.48 L 586.927 537.48 Q 587.088 535.472 587.27 533.463 L 587.27 533.463 L 587.27 533.463 Q 587.452 531.455 587.613 529.604 L 587.613 529.604 L 587.613 529.604 Q 587.775 527.754 587.896 526.454 Z  M 590.925 495.031 L 590.925 495.031 L 590.925 495.031 Q 591.046 493.338 591.106 492.432 L 591.106 492.432 L 591.106 492.432 Q 591.167 491.527 591.207 491.074 L 591.207 491.074 L 591.207 491.074 Q 591.248 490.621 591.248 490.503 L 591.248 490.503 L 591.248 490.503 Q 591.248 490.385 591.268 490.326 L 591.268 490.326 L 591.268 490.326 Q 591.288 490.266 591.308 490.089 L 591.308 490.089 L 591.308 490.089 Q 591.328 489.912 591.369 489.341 L 591.369 489.341 L 591.369 489.341 Q 591.409 488.77 591.49 487.668 L 591.49 487.668 L 591.49 487.668 Q 591.571 486.565 591.732 484.636 L 591.732 484.636 L 591.732 484.636 Q 591.813 483.336 591.995 482.844 L 591.995 482.844 L 591.995 482.844 Q 592.176 482.352 592.903 482.194 L 592.903 482.194 L 592.903 482.194 Q 596.336 481.525 600.091 480.796 L 600.091 480.796 L 600.091 480.796 Q 603.847 480.068 607.36 478.926 L 607.36 478.926 L 607.36 478.926 Q 607.481 478.886 607.724 478.886 L 607.724 478.886 L 607.724 478.886 Q 607.845 479.123 608.047 479.201 L 608.047 479.201 L 608.168 479.28 L 607.279 490.07 L 607.279 490.07 Q 607.158 491.369 606.977 491.881 L 606.977 491.881 L 606.977 491.881 Q 606.795 492.393 606.108 492.511 L 606.108 492.511 L 606.108 492.511 Q 602.676 493.141 599.163 493.889 L 599.163 493.889 L 599.163 493.889 Q 595.649 494.637 591.732 495.386 L 591.732 495.386 L 591.732 495.386 Q 591.611 495.425 591.369 495.425 L 591.369 495.425 L 591.369 495.425 Q 590.925 495.425 590.925 495.031 Z  M 614.346 509.837 L 614.346 509.837 L 614.346 509.837 Q 614.831 504.442 615.134 499.166 L 615.134 499.166 L 615.134 499.166 Q 615.437 493.889 615.8 488.337 L 615.8 488.337 L 615.8 488.337 Q 615.881 487.038 616.063 486.545 L 616.063 486.545 L 616.063 486.545 Q 616.244 486.053 616.971 485.896 L 616.971 485.896 L 616.971 485.896 Q 620.727 485.226 624.503 484.537 L 624.503 484.537 L 624.503 484.537 Q 628.278 483.848 632.074 482.706 L 632.074 482.706 L 632.074 482.706 Q 632.196 482.667 632.438 482.667 L 632.438 482.667 L 632.438 482.667 Q 632.882 482.667 632.882 483.06 L 632.882 483.06 L 627.632 539.291 L 627.632 539.961 L 627.632 539.961 Q 627.632 540.315 627.35 540.532 L 627.35 540.532 L 627.35 540.532 Q 627.067 540.748 626.017 541.024 L 626.017 541.024 L 615.437 544.804 L 615.437 544.804 Q 614.993 545.001 614.266 545.217 L 614.266 545.217 L 614.266 545.217 Q 613.539 545.434 612.852 545.434 L 612.852 545.434 L 612.852 545.434 Q 612.287 545.434 611.863 545.158 L 611.863 545.158 L 611.863 545.158 Q 611.439 544.883 611.439 544.213 L 611.439 544.213 L 611.439 543.977 L 611.439 543.977 Q 611.762 540 612.065 536.2 L 612.065 536.2 L 612.065 536.2 Q 612.368 532.4 612.711 528.344 L 612.711 528.344 L 612.711 528.344 Q 613.054 524.288 613.458 519.76 L 613.458 519.76 L 613.458 519.76 Q 613.862 515.232 614.346 509.837 Z  M 639.464 509.837 L 639.464 509.837 L 639.464 509.837 Q 639.949 504.442 640.252 499.166 L 640.252 499.166 L 640.252 499.166 Q 640.555 493.889 640.918 488.337 L 640.918 488.337 L 640.918 488.337 Q 640.999 487.038 641.181 486.545 L 641.181 486.545 L 641.181 486.545 Q 641.362 486.053 642.089 485.896 L 642.089 485.896 L 642.089 485.896 Q 645.845 485.226 649.621 484.537 L 649.621 484.537 L 649.621 484.537 Q 653.396 483.848 657.192 482.706 L 657.192 482.706 L 657.192 482.706 Q 657.313 482.667 657.556 482.667 L 657.556 482.667 L 657.556 482.667 Q 658 482.667 658 483.06 L 658 483.06 L 652.75 539.291 L 652.75 539.961 L 652.75 539.961 Q 652.75 540.315 652.468 540.532 L 652.468 540.532 L 652.468 540.532 Q 652.185 540.748 651.135 541.024 L 651.135 541.024 L 640.555 544.804 L 640.555 544.804 Q 640.111 545.001 639.384 545.217 L 639.384 545.217 L 639.384 545.217 Q 638.657 545.434 637.97 545.434 L 637.97 545.434 L 637.97 545.434 Q 637.405 545.434 636.981 545.158 L 636.981 545.158 L 636.981 545.158 Q 636.557 544.883 636.557 544.213 L 636.557 544.213 L 636.557 543.977 L 636.557 543.977 Q 636.88 540 637.183 536.2 L 637.183 536.2 L 637.183 536.2 Q 637.486 532.4 637.829 528.344 L 637.829 528.344 L 637.829 528.344 Q 638.172 524.288 638.576 519.76 L 638.576 519.76 L 638.576 519.76 Q 638.98 515.232 639.464 509.837 Z  M 707.186 498.536 L 703.027 535.235 L 703.027 535.235 Q 702.986 535.393 702.986 535.531 L 702.986 535.531 L 702.986 535.531 Q 702.986 535.668 702.986 535.787 L 702.986 535.787 L 702.986 535.787 Q 702.986 536.771 703.309 537.421 L 703.309 537.421 L 703.309 537.421 Q 703.632 538.07 704.016 538.484 L 704.016 538.484 L 704.016 538.484 Q 704.4 538.897 704.723 539.153 L 704.723 539.153 L 704.723 539.153 Q 705.046 539.409 705.046 539.606 L 705.046 539.606 L 705.046 539.606 Q 705.046 540.157 703.834 540.63 L 703.834 540.63 L 692.971 545.158 L 692.971 545.158 Q 692.931 545.198 692.689 545.198 L 692.689 545.198 L 692.689 545.198 Q 692.366 545.198 692.042 544.646 L 692.042 544.646 L 692.042 544.646 Q 691.719 544.095 691.417 543.249 L 691.417 543.249 L 691.417 543.249 Q 691.114 542.402 690.851 541.437 L 690.851 541.437 L 690.851 541.437 Q 690.589 540.472 690.387 539.646 L 690.387 539.646 L 690.387 539.646 Q 687.843 542.52 684.895 543.859 L 684.895 543.859 L 684.895 543.859 Q 681.947 545.198 679.039 545.198 L 679.039 545.198 L 679.039 545.198 Q 675.647 545.198 672.417 543.741 L 672.417 543.741 L 672.417 543.741 Q 669.186 542.284 666.682 539.586 L 666.682 539.586 L 666.682 539.586 Q 664.179 536.889 662.664 533.07 L 662.664 533.07 L 662.664 533.07 Q 661.15 529.25 661.15 524.485 L 661.15 524.485 L 661.15 524.485 Q 661.15 518.854 662.826 514.208 L 662.826 514.208 L 662.826 514.208 Q 664.502 509.561 667.369 506.214 L 667.369 506.214 L 667.369 506.214 Q 670.236 502.867 674.052 501.036 L 674.052 501.036 L 674.052 501.036 Q 677.868 499.205 682.149 499.205 L 682.149 499.205 L 682.149 499.205 Q 685.177 499.205 687.883 500.406 L 687.883 500.406 L 687.883 500.406 Q 690.589 501.607 693.012 503.497 L 693.012 503.497 L 693.012 503.497 Q 693.254 502.316 693.294 501.607 L 693.294 501.607 L 693.294 501.607 Q 693.335 500.898 693.476 500.505 L 693.476 500.505 L 693.476 500.505 Q 693.617 500.111 694.021 499.973 L 694.021 499.973 L 694.021 499.973 Q 694.425 499.835 695.354 499.756 L 695.354 499.756 L 695.354 499.756 Q 698.261 499.363 701.149 499.028 L 701.149 499.028 L 701.149 499.028 Q 704.036 498.693 707.186 498.536 L 707.186 498.536 L 707.186 498.536 Z  M 689.256 532.046 L 690.952 520.39 L 690.952 520.39 Q 691.356 518.146 691.497 516.157 L 691.497 516.157 L 691.497 516.157 Q 691.639 514.168 691.719 512.515 L 691.719 512.515 L 691.719 512.515 Q 691.073 512.042 690.326 511.53 L 690.326 511.53 L 690.326 511.53 Q 689.579 511.018 688.711 510.565 L 688.711 510.565 L 688.711 510.565 Q 687.843 510.113 686.894 509.837 L 686.894 509.837 L 686.894 509.837 Q 685.945 509.561 684.895 509.561 L 684.895 509.561 L 684.895 509.561 Q 682.714 509.561 681.24 510.94 L 681.24 510.94 L 681.24 510.94 Q 679.766 512.318 678.858 514.326 L 678.858 514.326 L 678.858 514.326 Q 677.949 516.334 677.565 518.579 L 677.565 518.579 L 677.565 518.579 Q 677.182 520.823 677.182 522.556 L 677.182 522.556 L 677.182 522.556 Q 677.182 528.777 678.858 531.672 L 678.858 531.672 L 678.858 531.672 Q 680.533 534.566 683.522 534.566 L 683.522 534.566 L 683.522 534.566 Q 684.733 534.566 686.227 533.896 L 686.227 533.896 L 686.227 533.896 Q 687.722 533.227 689.256 532.046 L 689.256 532.046 L 689.256 532.046 Z  M 741.592 515.665 L 741.632 515.074 L 741.632 515.074 Q 741.228 514.168 740.522 513.223 L 740.522 513.223 L 740.522 513.223 Q 739.815 512.278 738.886 511.491 L 738.886 511.491 L 738.886 511.491 Q 737.957 510.703 736.867 510.211 L 736.867 510.211 L 736.867 510.211 Q 735.777 509.719 734.565 509.719 L 734.565 509.719 L 734.565 509.719 Q 732.91 509.719 731.456 511.058 L 731.456 511.058 L 731.456 511.058 Q 730.002 512.396 728.912 514.621 L 728.912 514.621 L 728.912 514.621 Q 727.821 516.846 727.196 519.701 L 727.196 519.701 L 727.196 519.701 Q 726.57 522.556 726.57 525.627 L 726.57 525.627 L 726.57 525.627 Q 726.57 527.517 726.913 529.191 L 726.913 529.191 L 726.913 529.191 Q 727.256 530.864 727.983 532.124 L 727.983 532.124 L 727.983 532.124 Q 728.71 533.385 729.861 534.133 L 729.861 534.133 L 729.861 534.133 Q 731.012 534.881 732.627 534.881 L 732.627 534.881 L 732.627 534.881 Q 735.05 534.881 737.069 533.404 L 737.069 533.404 L 737.069 533.404 Q 739.088 531.928 740.502 529.565 L 740.502 529.565 L 740.502 529.565 Q 740.542 528.738 740.623 527.596 L 740.623 527.596 L 740.623 527.596 Q 740.703 526.454 740.825 524.82 L 740.825 524.82 L 740.825 524.82 Q 740.946 523.186 741.128 520.961 L 741.128 520.961 L 741.128 520.961 Q 741.309 518.736 741.592 515.665 L 741.592 515.665 L 741.592 515.665 Z  M 759.158 501.686 L 754.999 538.858 L 754.999 538.858 Q 754.595 542.756 753.182 546.143 L 753.182 546.143 L 753.182 546.143 Q 751.768 549.529 749.608 552.345 L 749.608 552.345 L 749.608 552.345 Q 747.447 555.16 744.681 557.385 L 744.681 557.385 L 744.681 557.385 Q 741.915 559.61 738.826 561.146 L 738.826 561.146 L 738.826 561.146 Q 735.736 562.681 732.465 563.488 L 732.465 563.488 L 732.465 563.488 Q 729.194 564.296 726.004 564.296 L 726.004 564.296 L 726.004 564.296 Q 724.308 564.296 722.531 564.178 L 722.531 564.178 L 722.531 564.178 Q 720.755 564.059 719.058 563.725 L 719.058 563.725 L 719.058 563.725 Q 717.362 563.39 715.828 562.78 L 715.828 562.78 L 715.828 562.78 Q 714.293 562.169 713.082 561.224 L 713.082 561.224 L 713.082 561.185 L 713.082 561.185 Q 713.082 560.988 713.385 559.807 L 713.385 559.807 L 713.385 559.807 Q 713.688 558.625 714.112 557.031 L 714.112 557.031 L 714.112 557.031 Q 714.536 555.436 715 553.743 L 715 553.743 L 715 553.743 Q 715.464 552.049 715.787 550.829 L 715.787 550.829 L 715.787 550.829 Q 715.949 550.277 716.111 550.081 L 716.111 550.081 L 716.111 550.081 Q 716.272 549.884 716.474 549.884 L 716.474 549.884 L 716.474 549.884 Q 716.716 549.884 716.757 549.923 L 716.757 549.923 L 716.757 549.923 Q 717.928 550.671 718.957 551.163 L 718.957 551.163 L 718.957 551.163 Q 719.987 551.656 721.138 551.951 L 721.138 551.951 L 721.138 551.951 Q 722.289 552.246 723.662 552.364 L 723.662 552.364 L 723.662 552.364 Q 725.035 552.483 726.852 552.483 L 726.852 552.483 L 726.852 552.483 Q 729.679 552.483 731.86 551.419 L 731.86 551.419 L 731.86 551.419 Q 734.04 550.356 735.615 548.663 L 735.615 548.663 L 735.615 548.663 Q 737.19 546.97 738.139 544.942 L 738.139 544.942 L 738.139 544.942 Q 739.088 542.914 739.452 540.945 L 739.452 540.945 L 739.452 540.945 Q 736.544 542.835 733.556 544.016 L 733.556 544.016 L 733.556 544.016 Q 730.567 545.198 727.539 545.198 L 727.539 545.198 L 727.539 545.198 Q 723.379 545.198 720.351 543.564 L 720.351 543.564 L 720.351 543.564 Q 717.322 541.929 715.343 539.173 L 715.343 539.173 L 715.343 539.173 Q 713.364 536.417 712.416 532.853 L 712.416 532.853 L 712.416 532.853 Q 711.467 529.289 711.467 525.391 L 711.467 525.391 L 711.467 525.391 Q 711.467 522.32 712.052 519.189 L 712.052 519.189 L 712.052 519.189 Q 712.638 516.059 713.789 513.145 L 713.789 513.145 L 713.789 513.145 Q 714.939 510.231 716.635 507.691 L 716.635 507.691 L 716.635 507.691 Q 718.332 505.151 720.553 503.261 L 720.553 503.261 L 720.553 503.261 Q 722.774 501.371 725.479 500.288 L 725.479 500.288 L 725.479 500.288 Q 728.185 499.205 731.375 499.205 L 731.375 499.205 L 731.375 499.205 Q 734.848 499.205 737.816 500.701 L 737.816 500.701 L 737.816 500.701 Q 740.784 502.198 743.207 504.403 L 743.207 504.403 L 743.207 504.403 Q 743.288 503.694 743.328 503.281 L 743.328 503.281 L 743.328 503.281 Q 743.369 502.867 743.53 502.631 L 743.53 502.631 L 743.53 502.631 Q 743.692 502.395 744.075 502.277 L 744.075 502.277 L 744.075 502.277 Q 744.459 502.158 745.186 502.001 L 745.186 502.001 L 745.186 502.001 Q 745.63 501.922 746.801 501.666 L 746.801 501.666 L 746.801 501.666 Q 747.972 501.41 749.588 501.056 L 749.588 501.056 L 749.588 501.056 Q 751.203 500.701 753.141 500.308 L 753.141 500.308 L 753.141 500.308 Q 755.08 499.914 757.058 499.481 L 757.058 499.481 L 757.058 499.481 Q 757.543 499.363 757.947 499.363 L 757.947 499.363 L 757.947 499.363 Q 759.199 499.363 759.199 500.938 L 759.199 500.938 L 759.199 500.938 Q 759.199 501.135 759.199 501.312 L 759.199 501.312 L 759.199 501.312 Q 759.199 501.489 759.158 501.686 L 759.158 501.686 L 759.158 501.686 Z  M 788.557 499.205 L 788.557 499.205 L 788.557 499.205 Q 792.393 499.205 795.523 500.603 L 795.523 500.603 L 795.523 500.603 Q 798.652 502.001 800.894 504.226 L 800.894 504.226 L 800.894 504.226 Q 803.135 506.451 804.346 509.207 L 804.346 509.207 L 804.346 509.207 Q 805.558 511.963 805.558 514.72 L 805.558 514.72 L 805.558 514.72 Q 805.558 517.161 804.023 519.622 L 804.023 519.622 L 804.023 519.622 Q 802.489 522.083 799.723 524.052 L 799.723 524.052 L 799.723 524.052 Q 796.956 526.021 793.08 527.242 L 793.08 527.242 L 793.08 527.242 Q 789.203 528.462 784.559 528.462 L 784.559 528.462 L 784.559 528.462 Q 782.136 528.462 779.471 527.99 L 779.471 527.99 L 779.471 527.99 Q 779.632 529.683 780.48 530.904 L 780.48 530.904 L 780.48 530.904 Q 781.328 532.124 782.621 532.912 L 782.621 532.912 L 782.621 532.912 Q 783.913 533.7 785.548 534.074 L 785.548 534.074 L 785.548 534.074 Q 787.184 534.448 788.92 534.448 L 788.92 534.448 L 788.92 534.448 Q 790.859 534.448 792.656 534.113 L 792.656 534.113 L 792.656 534.113 Q 794.453 533.778 796.108 533.227 L 796.108 533.227 L 796.108 533.227 Q 797.764 532.676 799.299 532.006 L 799.299 532.006 L 799.299 532.006 Q 800.833 531.337 802.206 530.668 L 802.206 530.668 L 802.206 530.668 Q 802.57 530.589 802.832 530.53 L 802.832 530.53 L 802.832 530.53 Q 803.095 530.471 803.337 530.471 L 803.337 530.471 L 803.337 530.471 Q 803.337 530.471 803.317 531.101 L 803.317 531.101 L 803.317 531.101 Q 803.296 531.731 803.296 532.873 L 803.296 532.873 L 803.296 532.873 Q 803.296 534.015 803.276 535.629 L 803.276 535.629 L 803.276 535.629 Q 803.256 537.244 803.216 539.212 L 803.216 539.212 L 803.216 539.212 Q 803.337 539.409 803.377 539.606 L 803.377 539.606 L 803.377 539.606 Q 803.418 539.803 803.418 539.921 L 803.418 539.921 L 803.418 539.921 Q 803.418 540.394 802.529 540.945 L 802.529 540.945 L 802.529 540.945 Q 801.641 541.496 800.207 542.087 L 800.207 542.087 L 800.207 542.087 Q 798.774 542.678 796.936 543.229 L 796.936 543.229 L 796.936 543.229 Q 795.099 543.78 793.201 544.233 L 793.201 544.233 L 793.201 544.233 Q 791.303 544.686 789.526 544.942 L 789.526 544.942 L 789.526 544.942 Q 787.749 545.198 786.417 545.198 L 786.417 545.198 L 786.417 545.198 Q 782.055 545.198 777.956 543.721 L 777.956 543.721 L 777.956 543.721 Q 773.858 542.244 770.688 539.488 L 770.688 539.488 L 770.688 539.488 Q 767.518 536.732 765.62 532.794 L 765.62 532.794 L 765.62 532.794 Q 763.722 528.856 763.722 523.934 L 763.722 523.934 L 763.722 523.934 Q 763.722 518.776 765.539 514.267 L 765.539 514.267 L 765.539 514.267 Q 767.356 509.758 770.647 506.411 L 770.647 506.411 L 770.647 506.411 Q 773.938 503.064 778.502 501.135 L 778.502 501.135 L 778.502 501.135 Q 783.065 499.205 788.557 499.205 Z  M 788.072 509.679 L 788.072 509.679 L 788.072 509.679 Q 786.417 509.679 785.023 510.369 L 785.023 510.369 L 785.023 510.369 Q 783.63 511.058 782.479 512.337 L 782.479 512.337 L 782.479 512.337 Q 781.328 513.617 780.48 515.409 L 780.48 515.409 L 780.48 515.409 Q 779.632 517.201 779.107 519.366 L 779.107 519.366 L 779.107 519.366 Q 783.267 518.657 786.013 517.87 L 786.013 517.87 L 786.013 517.87 Q 788.759 517.082 790.414 516.275 L 790.414 516.275 L 790.414 516.275 Q 792.07 515.468 792.757 514.661 L 792.757 514.661 L 792.757 514.661 Q 793.443 513.853 793.443 513.105 L 793.443 513.105 L 793.443 513.105 Q 793.443 512.396 792.898 511.766 L 792.898 511.766 L 792.898 511.766 Q 792.353 511.136 791.545 510.664 L 791.545 510.664 L 791.545 510.664 Q 790.737 510.191 789.788 509.935 L 789.788 509.935 L 789.788 509.935 Q 788.84 509.679 788.072 509.679 Z " fill-rule="evenodd" fill="rgb(255,255,255)"/></g><path d=" M 592.65 578.046 L 592.65 578.046 Q 587.972 578.046 586.03 576.912 L 586.03 576.912 L 586.03 576.912 Q 584.088 575.779 584.088 573.139 L 584.088 573.139 L 584.088 573.139 Q 584.088 572.056 584.402 571.363 L 584.402 571.363 L 584.402 571.363 Q 584.715 570.669 585.383 570.127 L 585.383 570.127 L 585.383 570.127 Q 586.051 569.586 587.388 568.74 L 587.388 568.74 L 587.388 568.74 Q 586.803 568.435 586.511 567.826 L 586.511 567.826 L 586.511 567.826 Q 586.218 567.217 586.218 566.54 L 586.218 566.54 L 586.218 566.54 Q 586.218 566.1 586.469 565.576 L 586.469 565.576 L 586.469 565.576 Q 586.719 565.051 587.638 563.732 L 587.638 563.732 L 587.638 563.732 Q 584.339 562.547 584.339 558.656 L 584.339 558.656 L 584.339 558.656 Q 584.339 555.712 586.302 554.273 L 586.302 554.273 L 586.302 554.273 Q 588.265 552.835 592.232 552.835 L 592.232 552.835 L 592.232 552.835 Q 594.154 552.835 596.493 553.275 L 596.493 553.275 L 602.674 553.14 L 602.674 555.305 L 598.706 555.238 L 598.706 555.238 Q 599.416 555.813 599.75 556.642 L 599.75 556.642 L 599.75 556.642 Q 600.084 557.471 600.084 558.757 L 600.084 558.757 L 600.084 558.757 Q 600.084 561.769 598.163 563.055 L 598.163 563.055 L 598.163 563.055 Q 596.242 564.341 592.107 564.341 L 592.107 564.341 L 592.107 564.341 Q 590.812 564.341 589.977 564.205 L 589.977 564.205 L 589.977 564.205 Q 589.643 564.882 589.434 565.39 L 589.434 565.39 L 589.434 565.39 Q 589.225 565.897 589.225 566.27 L 589.225 566.27 L 589.225 566.27 Q 589.225 567.149 590.082 567.42 L 590.082 567.42 L 590.082 567.42 Q 590.938 567.691 592.734 567.691 L 592.734 567.691 L 594.363 567.691 L 594.363 567.691 Q 597.119 567.691 598.811 568.029 L 598.811 568.029 L 598.811 568.029 Q 600.502 568.368 601.421 569.4 L 601.421 569.4 L 601.421 569.4 Q 602.34 570.432 602.34 572.395 L 602.34 572.395 L 602.34 572.395 Q 602.34 575.339 600.084 576.692 L 600.084 576.692 L 600.084 576.692 Q 597.829 578.046 592.65 578.046 L 592.65 578.046 L 592.65 578.046 Z  M 592.232 562.31 L 592.232 562.31 Q 594.78 562.31 595.866 561.464 L 595.866 561.464 L 595.866 561.464 Q 596.952 560.618 596.952 558.588 L 596.952 558.588 L 596.952 558.588 Q 596.952 556.591 595.866 555.745 L 595.866 555.745 L 595.866 555.745 Q 594.78 554.899 592.274 554.899 L 592.274 554.899 L 592.274 554.899 Q 589.685 554.899 588.578 555.762 L 588.578 555.762 L 588.578 555.762 Q 587.471 556.625 587.471 558.622 L 587.471 558.622 L 587.471 558.622 Q 587.471 560.618 588.578 561.464 L 588.578 561.464 L 588.578 561.464 Q 589.685 562.31 592.232 562.31 L 592.232 562.31 L 592.232 562.31 Z  M 592.942 575.914 L 592.942 575.914 Q 596.409 575.914 597.787 575.153 L 597.787 575.153 L 597.787 575.153 Q 599.166 574.391 599.166 572.53 L 599.166 572.53 L 599.166 572.53 Q 599.166 571.447 598.706 570.889 L 598.706 570.889 L 598.706 570.889 Q 598.247 570.33 597.161 570.127 L 597.161 570.127 L 597.161 570.127 Q 596.075 569.924 594.028 569.924 L 594.028 569.924 L 589.518 569.755 L 589.518 569.755 Q 588.139 570.567 587.659 571.176 L 587.659 571.176 L 587.659 571.176 Q 587.179 571.786 587.179 572.801 L 587.179 572.801 L 587.179 572.801 Q 587.179 574.56 588.453 575.237 L 588.453 575.237 L 588.453 575.237 Q 589.727 575.914 592.942 575.914 L 592.942 575.914 L 592.942 575.914 Z  M 606.474 570.094 L 606.474 553.174 L 609.565 553.174 L 609.565 555.475 L 609.565 555.475 Q 613.157 553.478 617.208 552.801 L 617.208 552.801 L 617.208 555.373 L 617.208 555.373 Q 615.579 555.644 613.679 556.202 L 613.679 556.202 L 613.679 556.202 Q 611.779 556.761 610.651 557.234 L 610.651 557.234 L 609.607 557.674 L 609.607 570.094 L 606.474 570.094 L 606.474 570.094 Z  M 628.735 570.432 L 628.735 570.432 Q 623.974 570.432 621.99 568.418 L 621.99 568.418 L 621.99 568.418 Q 620.006 566.405 620.006 562.073 L 620.006 562.073 L 620.006 562.073 Q 620.006 557.37 622.136 555.102 L 622.136 555.102 L 622.136 555.102 Q 624.266 552.835 628.819 552.835 L 628.819 552.835 L 628.819 552.835 Q 632.995 552.835 635.063 554.781 L 635.063 554.781 L 635.063 554.781 Q 637.13 556.727 637.13 560.754 L 637.13 560.754 L 636.963 562.683 L 623.181 562.683 L 623.181 562.683 Q 623.181 564.781 623.744 565.965 L 623.744 565.965 L 623.744 565.965 Q 624.308 567.149 625.666 567.674 L 625.666 567.674 L 625.666 567.674 Q 627.023 568.198 629.445 568.198 L 629.445 568.198 L 629.445 568.198 Q 630.657 568.198 632.244 568.148 L 632.244 568.148 L 632.244 568.148 Q 633.831 568.097 635.125 567.995 L 635.125 567.995 L 636.337 567.894 L 636.42 569.89 L 636.42 569.89 Q 631.784 570.432 628.735 570.432 L 628.735 570.432 L 628.735 570.432 Z  M 623.139 560.652 L 633.998 560.652 L 633.998 560.652 Q 633.998 557.573 632.787 556.27 L 632.787 556.27 L 632.787 556.27 Q 631.575 554.967 628.819 554.967 L 628.819 554.967 L 628.819 554.967 Q 625.937 554.967 624.559 556.338 L 624.559 556.338 L 624.559 556.338 Q 623.181 557.708 623.139 560.652 L 623.139 560.652 L 623.139 560.652 Z  M 649.827 570.432 L 649.827 570.432 Q 645.066 570.432 643.082 568.418 L 643.082 568.418 L 643.082 568.418 Q 641.098 566.405 641.098 562.073 L 641.098 562.073 L 641.098 562.073 Q 641.098 557.37 643.228 555.102 L 643.228 555.102 L 643.228 555.102 Q 645.358 552.835 649.91 552.835 L 649.91 552.835 L 649.91 552.835 Q 654.087 552.835 656.154 554.781 L 656.154 554.781 L 656.154 554.781 Q 658.222 556.727 658.222 560.754 L 658.222 560.754 L 658.055 562.683 L 644.272 562.683 L 644.272 562.683 Q 644.272 564.781 644.836 565.965 L 644.836 565.965 L 644.836 565.965 Q 645.4 567.149 646.757 567.674 L 646.757 567.674 L 646.757 567.674 Q 648.114 568.198 650.537 568.198 L 650.537 568.198 L 650.537 568.198 Q 651.748 568.198 653.335 568.148 L 653.335 568.148 L 653.335 568.148 Q 654.922 568.097 656.217 567.995 L 656.217 567.995 L 657.428 567.894 L 657.512 569.89 L 657.512 569.89 Q 652.876 570.432 649.827 570.432 L 649.827 570.432 L 649.827 570.432 Z  M 644.23 560.652 L 655.089 560.652 L 655.089 560.652 Q 655.089 557.573 653.878 556.27 L 653.878 556.27 L 653.878 556.27 Q 652.667 554.967 649.91 554.967 L 649.91 554.967 L 649.91 554.967 Q 647.029 554.967 645.65 556.338 L 645.65 556.338 L 645.65 556.338 Q 644.272 557.708 644.23 560.652 L 644.23 560.652 L 644.23 560.652 Z  M 663.108 570.094 L 663.108 553.174 L 666.199 553.174 L 666.199 554.358 L 666.199 554.358 Q 668.078 553.512 669.644 553.174 L 669.644 553.174 L 669.644 553.174 Q 671.211 552.835 672.923 552.835 L 672.923 552.835 L 672.923 552.835 Q 675.596 552.835 677.058 553.647 L 677.058 553.647 L 677.058 553.647 Q 678.52 554.459 679.125 556.236 L 679.125 556.236 L 679.125 556.236 Q 679.731 558.013 679.731 561.16 L 679.731 561.16 L 679.731 570.094 L 676.64 570.094 L 676.64 561.227 L 676.64 561.227 Q 676.64 558.825 676.285 557.539 L 676.285 557.539 L 676.285 557.539 Q 675.93 556.253 675.011 555.678 L 675.011 555.678 L 675.011 555.678 Q 674.092 555.102 672.338 555.102 L 672.338 555.102 L 672.338 555.102 Q 670.918 555.102 669.436 555.39 L 669.436 555.39 L 669.436 555.39 Q 667.953 555.678 667.034 556.05 L 667.034 556.05 L 666.241 556.354 L 666.241 570.094 L 663.108 570.094 L 663.108 570.094 Z " fill-rule="evenodd" fill="rgb(255,255,255)"/><defs><filter id="eiXoDzRCiSB73zJSq6nuLd1hg99vtQUj" x="-200%" y="-200%" width="400%" height="400%" filterUnits="objectBoundingBox" color-interpolation-filters="sRGB"><feGaussianBlur xmlns="http://www.w3.org/2000/svg" in="SourceGraphic" stdDeviation="2.146804531419514"/><feOffset xmlns="http://www.w3.org/2000/svg" dx="3" dy="3" result="pf_100_offsetBlur"/><feFlood xmlns="http://www.w3.org/2000/svg" flood-color="#000000" flood-opacity="0.65"/><feComposite xmlns="http://www.w3.org/2000/svg" in2="pf_100_offsetBlur" operator="in" result="pf_100_dropShadow"/><feBlend xmlns="http://www.w3.org/2000/svg" in="SourceGraphic" in2="pf_100_dropShadow" mode="normal"/></filter></defs><g filter="url(#eiXoDzRCiSB73zJSq6nuLd1hg99vtQUj)"><path d=" M 532.022 532.968 C 529.913 528.515 527.884 524.281 525.94 520.269 L 525.94 520.269 L 576.278 498.77 C 572.443 505.873 568.709 512.533 565.274 518.767 L 532.022 532.968 Z  M 543.012 556.586 C 545.275 561.529 547.605 566.668 550 572 C 547.312 566.95 547.253 560.973 549.039 554.012 L 543.012 556.586 Z  M 522.846 513.921 C 507.286 482.218 497.872 466.312 497 468 C 519.261 463.017 531.938 459.027 535 456 C 532.427 457.929 534.104 469.606 540 491 C 548.494 447.886 551.837 426.229 550 426 C 575.824 444.654 591.834 453.664 598 453 C 592.904 465.943 587.204 477.882 581.523 488.861 L 522.846 513.921 L 522.846 513.921 Z " fill-rule="evenodd" fill="rgb(14,28,98)" vector-effect="non-scaling-stroke" stroke-width="2" stroke="rgb(255,255,255)" stroke-linejoin="miter" stroke-linecap="square" stroke-miterlimit="3"/></g></g></g></svg>